<?xml version="1.0" encoding="utf-8"?>
<svg version="1.1"  xmlns="http://www.w3.org/2000/svg" xmlns:xlink="http://www.w3.org/1999/xlink" x="0px" y="0px"
	 viewBox="0 0 204 212" style="enable-background:new 0 0 204 212;" xml:space="preserve" class="h-24 md:h-48">
<g transform="translate(-280)">
	<path class="header-st0" d="M280,0h204l0,0v132c0,44.2-35.8,80-80,80H280l0,0V0L280,0z"/>
	<g transform="translate(326 44.515)">
		<path class="header-st1" d="M41.7,0.1l-3.3,3.4L35,0.1h-3.7v42.3H36V7.8l2.4,2.4l2.4-2.4V21h4.7V0.1H41.7z"/>
		<g transform="translate(0 0)">
			<g>
				<g>
					<path class="header-st1" d="M54.9,54.1c0,1-0.2,1.9-0.6,2.8c-0.7,1.7-2.1,3-3.8,3.8c-1.8,0.8-3.8,0.8-5.5,0
						c-1.7-0.7-3-2.1-3.8-3.8c-0.4-0.9-0.6-1.8-0.6-2.8V31.7c0-1,0.2-1.9,0.6-2.8c0.7-1.7,2.1-3,3.8-3.8c1.8-0.8,3.8-0.8,5.5,0
						c1.7,0.7,3,2.1,3.8,3.8c0.4,0.9,0.6,1.8,0.6,2.8v12c0,1-0.2,1.9-0.6,2.8c-0.7,1.7-2.1,3-3.8,3.8c-0.9,0.4-1.8,0.6-2.8,0.6h-2.4
						v3.3c0,0.6,0.2,1.2,0.7,1.7c0.9,0.9,2.4,0.9,3.3,0c0.5-0.4,0.7-1,0.7-1.7v-0.9h4.7V54.1z M45.4,46.1h2.4c1.3,0,2.4-1,2.4-2.3
						c0,0,0,0,0-0.1v-12c0-1.3-1-2.4-2.3-2.4c0,0,0,0,0,0c-0.6,0-1.2,0.2-1.7,0.7c-0.5,0.4-0.7,1-0.7,1.7L45.4,46.1z"/>
					<path class="header-st1" d="M59.3,96c0,1-0.2,1.9-0.6,2.8c-0.7,1.7-2.1,3-3.8,3.8c-1.8,0.8-3.8,0.8-5.5,0
						c-1.7-0.7-3-2.1-3.8-3.8c-0.4-0.9-0.6-1.8-0.6-2.8V71.7c0-1,0.2-1.9,0.6-2.8c0.7-1.7,2.1-3,3.8-3.8c1.8-0.8,3.8-0.8,5.5,0
						c1.7,0.7,3,2.1,3.8,3.8c0.4,0.9,0.6,1.8,0.6,2.8v13.9c0,1-0.2,1.9-0.6,2.8c-0.7,1.7-2.1,3-3.8,3.8c-0.9,0.4-1.8,0.6-2.8,0.6
						h-2.4V96c0,0.6,0.2,1.2,0.7,1.7c0.9,0.9,2.4,0.9,3.3,0c0.5-0.4,0.7-1,0.7-1.7v-0.9h4.7L59.3,96z M49.9,88h2.4
						c1.3,0,2.4-1,2.4-2.3c0,0,0,0,0-0.1V71.7c0-1.3-1.1-2.4-2.4-2.4c-0.6,0-1.2,0.2-1.7,0.7c-0.5,0.4-0.7,1-0.7,1.7V88z"/>
					<path class="header-st1" d="M72.8,57.1c0,1-0.2,1.9-0.6,2.8c-0.7,1.7-2.1,3-3.8,3.8c-1.8,0.8-3.8,0.8-5.5,0
						c-1.7-0.7-3-2.1-3.8-3.8c-0.4-0.9-0.6-1.8-0.6-2.8V46.3h4.7v10.8c0,1.3,1.1,2.3,2.4,2.4c0.6,0,1.2-0.2,1.7-0.7
						c0.4-0.4,0.7-1,0.7-1.7V46.3c0-1.3-1-2.4-2.3-2.4c0,0,0,0,0,0c-0.9,0-1.9-0.2-2.7-0.6c-0.8-0.4-1.6-0.9-2.2-1.5
						c-0.7-0.6-1.2-1.4-1.5-2.2c-0.4-0.9-0.6-1.8-0.6-2.8V25.3c0-1,0.2-1.9,0.6-2.8c0.7-1.7,2.1-3,3.8-3.8c1.8-0.8,3.8-0.8,5.5,0
						c1.7,0.7,3,2.1,3.8,3.8c0.4,0.9,0.6,1.8,0.6,2.8v11.5H68V25.3c0-1.3-1-2.4-2.3-2.4c0,0,0,0,0,0c-0.6,0-1.2,0.2-1.7,0.7
						c-0.5,0.4-0.7,1-0.7,1.7v11.5c0,1.3,1.1,2.3,2.4,2.4c1,0,1.9,0.2,2.8,0.6c1.7,0.7,3,2.1,3.8,3.8c0.4,0.9,0.6,1.8,0.6,2.8V57.1z
						"/>
					<path  class="header-st1" d="M14.2,110.3c0,1-0.2,1.9-0.6,2.8c-0.4,0.8-0.9,1.6-1.5,2.3c-0.7,0.6-1.4,1.1-2.2,1.5
						c-0.9,0.4-1.8,0.6-2.7,0.6c-1,0-1.9-0.2-2.8-0.6c-1.7-0.7-3.1-2.1-3.8-3.8c-0.4-0.9-0.6-1.8-0.6-2.8V63.4c0-1,0.2-1.9,0.6-2.8
						c0.7-1.7,2.1-3.1,3.8-3.8c0.9-0.4,1.8-0.6,2.8-0.6c0.9,0,1.9,0.2,2.7,0.6c0.8,0.4,1.6,0.9,2.2,1.5c0.7,0.6,1.2,1.4,1.5,2.2
						c0.4,0.9,0.6,1.8,0.6,2.8v4.1H9.5v-4.1c0-0.6-0.2-1.2-0.7-1.7c-0.9-0.9-2.4-0.9-3.3,0c-0.5,0.4-0.7,1.1-0.7,1.7v46.8
						c0,1.3,1,2.4,2.3,2.4c0,0,0,0,0,0c0.6,0,1.2-0.2,1.7-0.7c0.5-0.4,0.7-1,0.7-1.7v-5.9h4.7V110.3z"/>
					<path  class="header-st1" d="M23.7,93.2c0,1-0.2,2-0.6,2.9c-0.8,1.8-2.2,3.3-4,4c-0.9,0.4-1.9,0.6-2.9,0.6h-0.5
						c-1,0-2-0.2-2.9-0.6c-1.8-0.8-3.3-2.2-4-4c-0.8-1.9-0.8-4,0-5.9c0.8-1.8,2.2-3.3,4-4c0.9-0.4,1.9-0.6,2.9-0.6h3.3v-7.4
						c0-1.3-1.1-2.4-2.4-2.4c-0.6,0-1.2,0.2-1.7,0.7c-0.5,0.4-0.7,1-0.7,1.7v3.9H9.5v-3.9c0-1,0.2-1.9,0.6-2.8
						c0.7-1.7,2.1-3,3.8-3.8c1.8-0.8,3.8-0.8,5.5,0c1.7,0.7,3,2.1,3.8,3.8c0.4,0.9,0.6,1.8,0.6,2.8L23.7,93.2z M12.8,93.2
						c0,1.6,1.3,2.8,2.8,2.8c0,0,0,0,0,0h0.5c1.6,0,2.8-1.3,2.8-2.8c0,0,0,0,0,0v-2.8h-3.3C14,90.4,12.8,91.6,12.8,93.2
						C12.8,93.2,12.8,93.2,12.8,93.2"/>
					<path  class="header-st1" d="M41.5,97.8c0,1-0.2,1.9-0.6,2.8c-0.7,1.7-2.1,3-3.8,3.8c-0.9,0.4-1.8,0.6-2.8,0.6h-7.1
						V59.4h7.1c1,0,1.9,0.2,2.8,0.6c1.7,0.7,3,2.1,3.8,3.8c0.4,0.9,0.6,1.8,0.6,2.8V97.8z M32,100.2h2.4c1.3,0,2.4-1,2.4-2.3
						c0,0,0,0,0,0V66.5c0-1.3-1-2.4-2.3-2.4c0,0,0,0-0.1,0H32V100.2z"/>
					<path  class="header-st1" d="M77.2,101.5c0,1-0.2,2-0.6,2.9c-0.8,1.8-2.2,3.3-4,4c-0.9,0.4-1.9,0.6-2.9,0.6h-0.5
						c-1,0-2-0.2-2.9-0.6c-1.8-0.8-3.3-2.2-4-4c-0.8-1.9-0.8-4,0-5.9c0.8-1.8,2.2-3.3,4-4c0.9-0.4,1.9-0.6,2.9-0.6h3.3V75
						c0-1.3-1.1-2.4-2.4-2.4s-2.4,1.1-2.4,2.4v14H63V75c0-1,0.2-1.9,0.6-2.8c0.7-1.7,2.1-3,3.8-3.8c1.8-0.8,3.8-0.8,5.5,0
						c1.7,0.7,3,2.1,3.8,3.8c0.4,0.9,0.6,1.8,0.6,2.8L77.2,101.5z M66.3,101.5c0,1.6,1.3,2.8,2.8,2.8c0,0,0,0,0,0h0.5
						c1.6,0,2.8-1.3,2.8-2.8c0,0,0,0,0,0v-2.8h-3.3C67.6,98.7,66.3,99.9,66.3,101.5C66.3,101.5,66.3,101.5,66.3,101.5"/>
					<path  class="header-st1" d="M95,110.3c0,1-0.2,1.9-0.6,2.8c-0.7,1.7-2.1,3-3.8,3.8c-1.8,0.8-3.8,0.8-5.5,0
						c-1.7-0.7-3-2.1-3.8-3.8c-0.4-0.9-0.6-1.8-0.6-2.8V59.3h4.7v50.9c0,1.3,1,2.4,2.3,2.4c0.6,0,1.2-0.2,1.7-0.7
						c0.5-0.4,0.7-1,0.7-1.7V67.9H95L95,110.3z"/>
					<path  class="header-st1" d="M105,94.4c-0.2,0-0.4,0.1-0.5,0.2c-0.1,0.1-0.2,0.3-0.2,0.5l-0.8,13.9h-4.9l0.8-14.4
						c0.1-1,0.4-1.9,1-2.7c-0.6-0.8-0.9-1.8-1-2.7l-0.8-14.4h4.9l0.8,13.9c0,0.5,0.3,0.7,0.8,0.7c0.2,0,0.4-0.1,0.5-0.2
						c0.2-0.1,0.2-0.3,0.2-0.5l0.8-13.9h4.9l-0.8,14.4c-0.1,1-0.4,1.9-1,2.7c0.6,0.8,0.9,1.8,1,2.7l0.8,14.4h-4.9l-0.8-13.9
						C105.8,94.6,105.6,94.4,105,94.4"/>
					<path  class="header-st2" d="M19.9,116.3c0,0.5-0.4,1-0.9,1c-0.5,0-1-0.4-1-0.9c0-0.4,0.2-0.8,0.6-0.9
						c0.4-0.2,0.8-0.1,1.1,0.2C19.8,115.8,19.9,116,19.9,116.3"/>
					<path  class="header-st2" d="M28.1,116c-0.9,0.9-2.1,1.4-3.4,1.5c-0.1,0-0.3,0-0.4,0c-2.2-0.2-3.7-2.2-3.6-4.3
						c-0.1-1.9,1.1-3.6,2.8-4.2c1.6-0.6,3.4,0,4.4,1.3l-1.1,1.1c-0.7-0.9-1.8-1.2-2.8-0.9c-1.2,0.4-1.9,1.5-1.8,2.7
						c-0.2,1.4,0.8,2.6,2.2,2.7c0,0,0,0,0,0c1,0,2-0.5,2.7-1.2L28.1,116z"/>
					<path  class="header-st2" d="M37,112.8c0.1,1.6-0.8,3.2-2.2,4.1c-1.8,1.1-4.1,0.7-5.3-1c-1.5-2.1-1.1-5.1,1-6.6
						c0.2-0.1,0.4-0.3,0.6-0.4c1.6-0.8,3.6-0.4,4.7,1C36.7,110.7,37,111.7,37,112.8 M30.3,113c0,0.5,0.1,1.1,0.4,1.5
						c0.6,1.1,2,1.5,3.2,0.9c0.2-0.1,0.4-0.3,0.6-0.5c1-1.1,1.1-2.7,0.2-3.9c-0.7-1-2.1-1.3-3.2-0.6c-0.1,0.1-0.2,0.2-0.3,0.3
						C30.6,111.3,30.3,112.2,30.3,113"/>
					<path  class="header-st2" d="M47.1,117.3c0,0-0.1-3.7-0.3-5.4c-1,1.6-2.7,5.4-2.7,5.4h-1.5c0,0-1.6-3.4-2.6-5.1
						c0,1.6-0.1,3.6-0.1,5.2c-0.6,0-1.2,0-1.9,0c0-0.5,0-0.8,0.1-1.3c0.1-1.4,0.2-2.8,0.3-4.2c0-0.8,0.1-1.8,0.2-2.6
						c0-0.1,0-0.3,0-0.3l1.8,0c0,0,2.1,4.4,2.9,6.3c0.7-1,3.3-6.4,3.3-6.4s1.2,0,1.5,0c0.3,2.8,0.7,8.5,0.7,8.5s-0.6,0.1-0.9,0.1
						S47.1,117.2,47.1,117.3"/>
					<path  class="header-st3" d="M67.9,1.5c-0.4-1.2-1.7-1.9-3-1.5c-1.2,0.4-1.9,1.7-1.5,3c0,0,0,0.1,0,0.1l2.1,5.8
						c0.5,1.2,1.8,1.8,3,1.3c1.2-0.5,1.8-1.7,1.4-2.9L67.9,1.5z"/>
					<path  class="header-st3" d="M79.9,15.6c0.4,1.2,1.8,1.8,3,1.4c0,0,0,0,0,0l5.7-2.1c1.2-0.5,1.8-1.8,1.3-3
						c-0.5-1.2-1.7-1.8-2.9-1.4l-5.7,2.1C80.1,13.1,79.5,14.4,79.9,15.6"/>
					<path  class="header-st3" d="M88.1,23.9l-5.5-2.6c-1.2-0.6-2.6-0.1-3.1,1.1s-0.1,2.6,1.1,3.1l5.5,2.6
						c1.2,0.6,2.6,0.1,3.1-1.1S89.3,24.5,88.1,23.9L88.1,23.9"/>
					<path  class="header-st3" d="M79.8,0.9c-1.2-0.6-2.6-0.1-3.1,1.1c0,0,0,0,0,0l-2.6,5.5c-0.6,1.2-0.1,2.6,1.1,3.1
						s2.6,0.1,3.1-1.1l0,0L81,4C81.5,2.8,81,1.5,79.8,0.9C79.9,0.9,79.9,0.9,79.8,0.9"/>
					<path  class="header-st4" d="M74.9,117.4H55.8c-1.3,0-2.3-1-2.3-2.3c0-1.3,1-2.3,2.3-2.3h19.1c1.3,0,2.3,1,2.3,2.3
						C77.2,116.3,76.2,117.4,74.9,117.4L74.9,117.4"/>
					<path  class="header-st4" d="M33.6,55.7c-1.3,0-2.3-1-2.3-2.3l0,0v-5c0-1.3,1-2.3,2.3-2.3c1.3,0,2.3,1,2.3,2.3v5
						C36,54.6,34.9,55.7,33.6,55.7"/>
				</g>
			</g>
		</g>
	</g>
</g>
</svg>
